<svg xmlns="http://www.w3.org/2000/svg" version="1.1" xmlns:xlink="http://www.w3.org/1999/xlink" xmlns:svgjs="http://svgjs.com/svgjs" width="512" height="512"><svg version="1.1" id="SvgjsSvg1000" xmlns="http://www.w3.org/2000/svg" xmlns:xlink="http://www.w3.org/1999/xlink" x="0px" y="0px" viewBox="0 0 512 512" style="enable-background:new 0 0 512 512;" xml:space="preserve">
<style type="text/css">
	.st0{fill:#F8B90F;}
</style>
<path class="st0" d="M497.56,221.25c9.63-16.89,14.44-34.95,14.44-54.2c0-17.8-4.36-34.41-13.07-49.84
	c-8.71-15.44-21.79-27.97-39.22-37.58c-17.43-9.63-38.49-14.43-63.18-14.43h-87.1h-64.86H13.07L0,149.08h100.77L74.08,322.29
	c-1.09,4.72-1.91,9.63-2.45,14.71c-0.54,5.09-0.82,10.17-0.82,15.25c0,28.32,8.99,51.12,26.96,68.36
	c17.97,17.25,44.03,25.87,78.16,25.87h41.94l42.91-82.97l-63.07-0.91c-7.27,0-12.71-1.81-16.34-5.45
	c-3.63-3.63-5.45-8.35-5.45-14.16c0-2.54,0.18-5.26,0.54-8.17c0.36-2.9,0.72-5.99,1.09-9.26l27.78-176.48l25.61-0.68l-0.02,0.13
	l140.53-0.55c7.99,0,14.71,1.17,20.15,3.54c5.45,2.36,9.53,5.63,12.26,9.8c2.72,4.17,4.09,9.17,4.09,14.98
	c0,4.71-0.72,9.17-2.18,13.34c-1.45,4.17-3.99,8.62-7.63,13.35c-6.54-4.36-13.89-8.17-22.06-11.44c-8.17-3.27-17.06-5.81-26.69-7.63
	c-9.62-1.82-19.51-2.72-29.69-2.72c-17.79,0-34.13,3.17-49.02,9.53c-14.89,6.35-26.96,15.8-36.22,28.32
	c-9.26,12.53-13.89,27.86-13.89,46.03c0,14.16,3.73,26.32,11.17,36.49c7.45,10.16,17.52,17.97,30.23,23.42
	c12.72,5.45,27.42,8.17,44.12,8.17c14.16,0,27.78-1.55,40.85-4.63c13.07-3.09,26.33-8.63,39.76-16.61c2.18,2.9,3.54,5.99,4.09,9.26
	c0.54,3.27,0.82,6.35,0.82,9.26c0,9.44-3.08,17.34-9.26,23.69c-6.17,6.35-15.25,9.53-27.23,9.53l-227.79-1.54l82.63,84.33h142.98
	c26.14,0,48.94-5,68.36-14.98c19.43-9.99,34.41-23.42,44.94-40.31c10.54-16.89,15.8-35.86,15.8-56.92c0-14.89-2.09-27.78-6.26-38.67
	c-4.17-10.89-9.53-21.06-16.07-30.5C475.33,252.75,487.95,238.13,497.56,221.25z M336.34,267.82c-7.08,2.54-14.43,3.81-22.06,3.81
	c-6.54,0-11.71-1.18-15.52-3.54c-3.81-2.37-5.72-5.72-5.72-10.08c0-4.36,2-8.17,5.99-11.44c4-3.27,9.99-4.9,17.97-4.9
	c6.54,0,13.34,1.45,20.43,4.36c7.08,2.9,13.53,6.72,19.34,11.44C350.23,261.83,343.42,265.27,336.34,267.82z"></path>
</svg><style>@media (prefers-color-scheme: light) { :root { filter: none; } }
</style></svg>