<svg id="Layer_1" data-name="Layer 1" xmlns="http://www.w3.org/2000/svg" viewBox="0 0 199.4 25.49"><defs><style>.cls-1{fill:#fff;}.cls-2{fill:#f8b90f;}</style></defs><path class="cls-1" d="M11.59,25.78a7.42,7.42,0,0,1-5.16-1.67,5.78,5.78,0,0,1-1.86-4.54,7.76,7.76,0,0,1,0-.95l.12-1L6.39,7.13H0L1,1.2H21.14l-.95,5.93H14L12.33,17.77c0,.19-.05.38-.09.57a3.26,3.26,0,0,0-.05.52.87.87,0,0,0,.31.74,1.38,1.38,0,0,0,.85.25H15.7l-.95,5.93Z" transform="translate(-0.04 -0.74)"/><path class="cls-1" d="M32.13,26.2A13.75,13.75,0,0,1,27,25.29a12.22,12.22,0,0,1-4-2.51A11,11,0,0,1,20.48,19a11.72,11.72,0,0,1-.92-4.62A13.55,13.55,0,0,1,20.65,9a13.25,13.25,0,0,1,3-4.34,13.93,13.93,0,0,1,4.49-2.84,14.85,14.85,0,0,1,5.5-1,13.9,13.9,0,0,1,5.18.91,11.61,11.61,0,0,1,3.93,2.53A11.13,11.13,0,0,1,45.3,8a12,12,0,0,1,.88,4.63,13.76,13.76,0,0,1-1,5.43,13.09,13.09,0,0,1-7.41,7.16A15.18,15.18,0,0,1,32.13,26.2Zm.25-6.11a5.42,5.42,0,0,0,2.51-.58,6,6,0,0,0,2-1.58,7,7,0,0,0,1.26-2.32,8.66,8.66,0,0,0,.44-2.75,6.81,6.81,0,0,0-.72-3.27,5,5,0,0,0-1.9-2,5.07,5.07,0,0,0-2.58-.68,5.42,5.42,0,0,0-2.51.58,5.91,5.91,0,0,0-2,1.6,7.31,7.31,0,0,0-1.27,2.31,8.6,8.6,0,0,0-.44,2.74,6.81,6.81,0,0,0,.72,3.27,5,5,0,0,0,1.9,2A5.07,5.07,0,0,0,32.38,20.09Z" transform="translate(-0.04 -0.74)"/><path class="cls-1" d="M46.74,25.78,50.61,1.2H61.46a9.91,9.91,0,0,1,4.54,1A8,8,0,0,1,69.2,5a7.45,7.45,0,0,1,1.18,4.18,8.57,8.57,0,0,1-.58,3.07A9.29,9.29,0,0,1,68,15.09a12,12,0,0,1-3,2.37l1,1.82a2.11,2.11,0,0,0,.44.5,1.33,1.33,0,0,0,.83.21h2.28l-.91,5.79h-3.8a5.69,5.69,0,0,1-3.23-.91A6.36,6.36,0,0,1,59.49,22L58.12,18.9h-2.7l-1.09,6.88ZM56.33,13.1h3a3.78,3.78,0,0,0,1.76-.42,3.33,3.33,0,0,0,1.28-1.19,3.41,3.41,0,0,0,.47-1.79,2.56,2.56,0,0,0-.35-1.37,2.33,2.33,0,0,0-1-.88,3.29,3.29,0,0,0-1.48-.32H57.24Z" transform="translate(-0.04 -0.74)"/><path class="cls-1" d="M89.8,26.24a9.5,9.5,0,0,1-4.06-.83A6.56,6.56,0,0,1,83,23.08a6.26,6.26,0,0,1-1-3.55A8.5,8.5,0,0,1,82,18.48c0-.4.08-.72.1-.95l1.3-8.39c0-.12,0-.24,0-.37s0-.27,0-.41a1.06,1.06,0,0,0-.33-.8,1.18,1.18,0,0,0-.86-.32,1.76,1.76,0,0,0-.79.18,1.58,1.58,0,0,0-.62.5,1.77,1.77,0,0,0-.31.79L77.93,25.78H70.69L73.4,8.43a8.6,8.6,0,0,1,1.77-4.11,9.28,9.28,0,0,1,3.44-2.65A10.49,10.49,0,0,1,83,.74a9,9,0,0,1,4,.88A7,7,0,0,1,89.8,4.06a6.56,6.56,0,0,1,1,3.67,7.76,7.76,0,0,1,0,.95,7,7,0,0,1-.12.84l-1.33,8.32a2.2,2.2,0,0,0-.06.37c0,.13,0,.25,0,.37a1.11,1.11,0,0,0,.37.88,1.25,1.25,0,0,0,.83.32,1.66,1.66,0,0,0,.75-.18,1.86,1.86,0,0,0,.64-.51,1.71,1.71,0,0,0,.33-.79l2.7-17.1h7.2l-2.7,17.38a8.35,8.35,0,0,1-1.83,4.2A9.28,9.28,0,0,1,94,25.36,10.76,10.76,0,0,1,89.8,26.24Z" transform="translate(-0.04 -0.74)"/><path class="cls-1" d="M115.08,26.2a13.71,13.71,0,0,1-5.11-.91,12.38,12.38,0,0,1-4-2.51A11.27,11.27,0,0,1,103.42,19a11.72,11.72,0,0,1-.91-4.62A13.38,13.38,0,0,1,103.6,9a13.1,13.1,0,0,1,3-4.34,13.72,13.72,0,0,1,4.49-2.84,14.85,14.85,0,0,1,5.5-1,13.94,13.94,0,0,1,5.18.91,11.61,11.61,0,0,1,3.93,2.53A11.13,11.13,0,0,1,128.25,8a12.16,12.16,0,0,1,.88,4.63,13.76,13.76,0,0,1-1,5.43,13.09,13.09,0,0,1-7.41,7.16A15.22,15.22,0,0,1,115.08,26.2Zm.25-6.11a5.42,5.42,0,0,0,2.51-.58,6,6,0,0,0,2-1.58,7,7,0,0,0,1.27-2.32,8.66,8.66,0,0,0,.44-2.75,6.81,6.81,0,0,0-.72-3.27,5,5,0,0,0-1.9-2,5.07,5.07,0,0,0-2.58-.68,5.42,5.42,0,0,0-2.51.58,6,6,0,0,0-2,1.6,7.29,7.29,0,0,0-1.26,2.31,8.6,8.6,0,0,0-.44,2.74,6.81,6.81,0,0,0,.72,3.27,5,5,0,0,0,1.9,2A5.07,5.07,0,0,0,115.33,20.09Z" transform="translate(-0.04 -0.74)"/><path class="cls-2" d="M129.16,25.78,133,1.2h14.29a7.66,7.66,0,0,1,3.9.89,5.64,5.64,0,0,1,2.21,2.29,6.29,6.29,0,0,1,.7,2.89,6,6,0,0,1-.51,2.41,6.91,6.91,0,0,1-1.37,2.07,4.8,4.8,0,0,1-2,1.28,5.22,5.22,0,0,1,2.19,2.2,6.19,6.19,0,0,1,.76,3,7,7,0,0,1-1,3.63,8,8,0,0,1-2.89,2.84,8.39,8.39,0,0,1-4.36,1.11Zm8.5-5.76h6.18a1.91,1.91,0,0,0,1.11-.3,2,2,0,0,0,.67-.77,2.24,2.24,0,0,0,.22-1,1.87,1.87,0,0,0-.17-.83,1.55,1.55,0,0,0-.55-.62,1.65,1.65,0,0,0-.93-.24h-6Zm1.48-9.34h5.4a1.77,1.77,0,0,0,1.06-.3,2,2,0,0,0,.65-.77,2.26,2.26,0,0,0,.23-1,1.84,1.84,0,0,0-.16-.73,1.28,1.28,0,0,0-.51-.57,1.69,1.69,0,0,0-.88-.21h-5.27Z" transform="translate(-0.04 -0.74)"/><path class="cls-2" d="M163.33,25.78a8.3,8.3,0,0,1-4.21-1,6.48,6.48,0,0,1-2.51-2.53,6.73,6.73,0,0,1-.83-3.2,6.85,6.85,0,0,1,.95-3.51,9.76,9.76,0,0,1,2.53-2.81,9.94,9.94,0,0,1-1-1.91,7.26,7.26,0,0,1-.42-2.69,6.67,6.67,0,0,1,.91-3.4,6.88,6.88,0,0,1,2.69-2.57,8.72,8.72,0,0,1,4.27-1h11.73L176.5,7H166.11a2,2,0,0,0-1.46.48,1.52,1.52,0,0,0-.47,1.14,2,2,0,0,0,0,.49,1.65,1.65,0,0,0,.19.49,8.65,8.65,0,0,1,2.5-.95,12.89,12.89,0,0,1,2.49-.24,7.31,7.31,0,0,1,2.72.49,4.8,4.8,0,0,1,2,1.47,3.91,3.91,0,0,1,.77,2.46,5,5,0,0,1-1,3.25,5.46,5.46,0,0,1-2.48,1.74,9.18,9.18,0,0,1-3.07.53,11.33,11.33,0,0,1-1.77-.14,10.74,10.74,0,0,1-1.58-.39,7.7,7.7,0,0,1-1.29-.56,2.09,2.09,0,0,0-.4.68,2.05,2.05,0,0,0-.09.58,1.36,1.36,0,0,0,.23.79,1.46,1.46,0,0,0,.65.51,2.48,2.48,0,0,0,1,.18h9.34l-.91,5.79Zm5.24-11.41a2,2,0,0,0,1.19-.3.92.92,0,0,0,.42-.79.67.67,0,0,0-.37-.63,2,2,0,0,0-1-.21,3.67,3.67,0,0,0-1.42.28,5.27,5.27,0,0,0-1.18.66,3.47,3.47,0,0,0,1.06.69A3.11,3.11,0,0,0,168.57,14.37Z" transform="translate(-0.04 -0.74)"/><path class="cls-2" d="M189.88,25.78a7.42,7.42,0,0,1-5.16-1.67,5.78,5.78,0,0,1-1.86-4.54c0-.31,0-.62,0-.95l.12-1,1.65-10.5h-6.35l.95-5.93h20.15l-.94,5.93h-6.22l-1.65,10.64a5.62,5.62,0,0,1-.09.57,3.26,3.26,0,0,0-.05.52.87.87,0,0,0,.31.74,1.38,1.38,0,0,0,.85.25H194l-1,5.93Z" transform="translate(-0.04 -0.74)"/></svg>